# xmcd CD database file
# Copyright (C) 1997 Ti Kan
# 
# Track frame offsets:
#     150
#     12160
#     28237
#     41582
#     53407
#     67032
#     81040
#     92932
#     107195
#     118565
#     133912
#     143650
#     156272
#     174557
# 
# Disc length: 2560 seconds
# 
# Revision: 1
# Processed by: cddbd v1.4b41PL1 Copyright (c) Steve Scherf et al.
# Submitted via: DiscPlay 4.0.4
# 
DISCID=bd09fe0e
DTITLE=Maria Augusta - Classics in Bossa
DYEAR=1900
DGENRE=
TTITLE0=All of me
TTITLE1=You've Changed
TTITLE2=Embraceable You
TTITLE3=Tangerine
TTITLE4=The shadow of your smile
TTITLE5=Call me irresponsible
TTITLE6=Blaubes, bangles and beads
TTITLE7=All the things you are
TTITLE8=Lullaby of birdland
TTITLE9=Smoke gets in your eyes
TTITLE10=Satin doll
TTITLE11=Body and soul
TTITLE12=Speak low
TTITLE13=Cheek to cheek
EXTD=
EXTT0=
EXTT1=
EXTT2=
EXTT3=
EXTT4=
EXTT5=
EXTT6=
EXTT7=
EXTT8=
EXTT9=
EXTT10=
EXTT11=
EXTT12=
EXTT13=
PLAYORDER=
